<svg width="599" height="1370" fill="none" xmlns="http://www.w3.org/2000/svg"><path d="M363 8C363 12.4183 366.582 16 371 16C375.418 16 379 12.4183 379 8C379 3.58172 375.418 0 371 0C366.582 0 363 3.58172 363 8ZM582.871 1357.94C582.871 1362.36 586.453 1365.94 590.871 1365.94C595.29 1365.94 598.871 1362.36 598.871 1357.94C598.871 1353.52 595.29 1349.94 590.871 1349.94C586.453 1349.94 582.871 1353.52 582.871 1357.94ZM589.354 1358C589.354 1358.83 590.026 1359.5 590.854 1359.5C591.683 1359.5 592.354 1358.83 592.354 1358H589.354ZM590.827 1361.5C589.999 1361.5 589.327 1362.17 589.327 1363C589.327 1363.83 589.999 1364.5 590.827 1364.5V1361.5ZM371 9.5H413V6.5H371V9.5ZM435.5 32V86H438.5V32H435.5ZM413 108.5H26V111.5H413V108.5ZM0.5 134V1225H3.5V134H0.5ZM26 1250.5H567V1247.5H26V1250.5ZM589.5 1273V1362.83H592.5V1273H589.5ZM592.154 1362.83V1358.1H589.154V1362.83H592.154ZM590.754 1359.5H590.851V1356.5H590.754V1359.5ZM590.857 1359.51H590.863V1356.51H590.857V1359.51ZM592.371 1358V1357.94H589.371V1358H592.371ZM590.863 1359.51C591.696 1359.51 592.371 1358.83 592.371 1358H589.371C589.371 1357.17 590.039 1356.51 590.863 1356.51V1359.51ZM589.354 1358C589.354 1358.83 590.027 1359.51 590.857 1359.51V1356.51C591.684 1356.51 592.354 1357.18 592.354 1358H589.354ZM590.851 1359.5C590.025 1359.5 589.354 1358.83 589.354 1358H592.354C592.354 1357.17 591.681 1356.5 590.851 1356.5V1359.5ZM592.154 1358.1C592.154 1358.87 591.527 1359.5 590.754 1359.5V1356.5C589.871 1356.5 589.154 1357.22 589.154 1358.1H592.154ZM590.827 1361.5C591.56 1361.5 592.154 1362.09 592.154 1362.83H589.154C589.154 1363.75 589.903 1364.5 590.827 1364.5V1361.5ZM589.5 1362.83C589.5 1362.09 590.094 1361.5 590.827 1361.5V1364.5C591.751 1364.5 592.5 1363.75 592.5 1362.83H589.5ZM567 1250.5C579.426 1250.5 589.5 1260.57 589.5 1273H592.5C592.5 1258.92 581.083 1247.5 567 1247.5V1250.5ZM0.5 1225C0.5 1239.08 11.9167 1250.5 26 1250.5V1247.5C13.5736 1247.5 3.5 1237.43 3.5 1225H0.5ZM26 108.5C11.9168 108.5 0.5 119.917 0.5 134H3.5C3.5 121.574 13.5736 111.5 26 111.5V108.5ZM435.5 86C435.5 98.4264 425.426 108.5 413 108.5V111.5C427.083 111.5 438.5 100.083 438.5 86H435.5ZM413 9.5C425.426 9.5 435.5 19.5736 435.5 32H438.5C438.5 17.9167 427.083 6.5 413 6.5V9.5Z" fill="#F21C19"></path></svg>