<svg width="599" height="1725" viewBox="0 0 326 1527" fill="none" xmlns="http://www.w3.org/2000/svg"><path d="M269.667 6C269.667 8.94552 272.054 11.3333 275 11.3333C277.946 11.3333 280.333 8.94552 280.333 6C280.333 3.05448 277.946 0.666667 275 0.666667C272.054 0.666667 269.667 3.05448 269.667 6ZM192.806 1521.24C192.806 1524.18 195.194 1526.57 198.139 1526.57C201.085 1526.57 203.472 1524.18 203.472 1521.24C203.472 1518.29 201.085 1515.91 198.139 1515.91C195.194 1515.91 192.806 1518.29 192.806 1521.24ZM197.927 1502.73C198.479 1502.73 198.927 1502.28 198.927 1501.73C198.927 1501.18 198.479 1500.73 197.927 1500.73V1502.73ZM275 7H301V5H275V7ZM324 30V51H326V30H324ZM301 74H25V76H301V74ZM0 99V1445H2V99H0ZM25 1470H181.508V1468H25V1470ZM196.874 1485.37V1501.68H198.874V1485.37H196.874ZM196.979 1501.78V1521.08H198.979V1501.78H196.979ZM196.979 1521.08C196.979 1521.72 197.499 1522.24 198.139 1522.24V1520.24C198.603 1520.24 198.979 1520.62 198.979 1521.08H196.979ZM197.927 1502.73C197.404 1502.73 196.979 1502.31 196.979 1501.78H198.979C198.979 1501.2 198.508 1500.73 197.927 1500.73V1502.73ZM196.874 1501.68C196.874 1502.26 197.345 1502.73 197.927 1502.73V1500.73C198.45 1500.73 198.874 1501.16 198.874 1501.68H196.874ZM181.508 1470C189.994 1470 196.874 1476.88 196.874 1485.37H198.874C198.874 1475.78 191.099 1468 181.508 1468V1470ZM0 1445C0 1458.81 11.1929 1470 25 1470V1468C12.2974 1468 2 1457.7 2 1445H0ZM25 74C11.1929 74 0 85.1929 0 99H2C2 86.2975 12.2975 76 25 76V74ZM324 51C324 63.7025 313.703 74 301 74V76C314.807 76 326 64.8071 326 51H324ZM301 7C313.703 7 324 17.2975 324 30H326C326 16.1929 314.807 5 301 5V7Z" fill="#F21C19"></path></svg>